<?xml version="1.0" encoding="UTF-8" standalone="no"?>
<svg
   xmlns:dc="http://purl.org/dc/elements/1.1/"
   xmlns:cc="http://creativecommons.org/ns#"
   xmlns:rdf="http://www.w3.org/1999/02/22-rdf-syntax-ns#"
   xmlns:svg="http://www.w3.org/2000/svg"
   xmlns="http://www.w3.org/2000/svg"
   xmlns:sodipodi="http://sodipodi.sourceforge.net/DTD/sodipodi-0.dtd"
   xmlns:inkscape="http://www.inkscape.org/namespaces/inkscape"
   version="1.1"
   id="svg10"
   width="1023.8249"
   height="1023.8116"
   viewBox="0 0 1023.8249 1023.8116"
   sodipodi:docname="django-logo.svg"
   inkscape:version="1.0.2 (e86c870879, 2021-01-15, custom)">
  <metadata
     id="metadata16">
    <rdf:RDF>
      <cc:Work
         rdf:about="">
        <dc:format>image/svg+xml</dc:format>
        <dc:type
           rdf:resource="http://purl.org/dc/dcmitype/StillImage" />
        <dc:title></dc:title>
      </cc:Work>
    </rdf:RDF>
  </metadata>
  <defs
     id="defs14" />
  <sodipodi:namedview
     pagecolor="#ffffff"
     bordercolor="#666666"
     borderopacity="1"
     objecttolerance="10"
     gridtolerance="10"
     guidetolerance="10"
     inkscape:pageopacity="0"
     inkscape:pageshadow="2"
     inkscape:window-width="1920"
     inkscape:window-height="1017"
     id="namedview12"
     showgrid="false"
     inkscape:zoom="0.5"
     inkscape:cx="391.9342"
     inkscape:cy="711.94051"
     inkscape:window-x="1912"
     inkscape:window-y="-8"
     inkscape:window-maximized="1"
     inkscape:current-layer="layer1"
     inkscape:document-rotation="0"
     fit-margin-top="0"
     fit-margin-left="0"
     fit-margin-right="0"
     fit-margin-bottom="0" />
  <g
     inkscape:groupmode="layer"
     inkscape:label="Image"
     id="g18"
     transform="translate(-1112.0658,439.94051)">
    <g
       inkscape:groupmode="layer"
       id="layer1"
       inkscape:label="background">
      <ellipse
         style="fill:#ffffff;stroke-width:2.25612"
         id="path11"
         cx="1623.9783"
         cy="71.965271"
         rx="464"
         ry="432" />
    </g>
    <path
       style="fill:#082d1f"
       d="M 1589.5,582.8929 C 1440.3234,572.6659 1303.9271,498.4138 1214.0433,378.5 c -135.392,-180.62631 -136.0257,-429.85009 -1.5536,-611 47.4411,-63.90869 109.788,-116.68291 179.5103,-151.94844 213.0045,-107.73762 470.8988,-55.08375 624.232,127.44844 154.573,184.00819 159.9479,451.93609 12.8785,641.97035 -97.8908,126.48875 -248.7494,200.03845 -407.9401,198.88745 -10.8187,-0.078 -25.0704,-0.5125 -31.6704,-0.9649 z m 138.5519,-125.22447 c 14.9613,-6.15527 46.8371,-30.34106 64.6195,-49.03008 C 1817.843,382.18337 1829.51,342.44379 1833.9611,268 1837.297,212.20617 1838,175.78595 1838,58.75608 c 0,-112.44192 -0.093,-118.75502 -1.75,-118.73623 -0.9625,0.0109 -25.15,0.67806 -53.75,1.48255 -28.6,0.80449 -53.2375,1.47056 -54.75,1.48015 L 1725,-57 1724.986,81.25 c -0.01,77.9248 -0.4501,146.97697 -1.0137,158.25 -3.2651,65.31384 -14.3245,98.73435 -41.6192,125.76896 -11.6488,11.53779 -23.9598,20.63221 -47.6884,35.2283 -10.7271,6.59849 -19.3288,12.17221 -19.1149,12.38606 0.2138,0.21384 4.7901,2.26624 10.1694,4.56087 5.3793,2.29464 16.0806,7.57047 23.7806,11.72408 18.4609,9.95836 50.6533,25.21171 59.7504,28.31085 8.9649,3.05408 11.7695,3.08232 18.8015,0.18931 z M 1531.5,303.97467 c 29.9291,-1.77107 58.9835,-5.11224 100.1967,-11.52231 C 1643.9049,290.55356 1654.1424,289 1654.4467,289 1654.751,289 1655,170.65 1655,26 v -263 h -55.9433 -55.9433 l -1.5567,2.22251 c -1.3792,1.96914 -1.5567,11.89461 -1.5567,87.06738 0,80.34313 -0.093,84.81631 -1.75,84.30638 -12.1433,-3.73672 -54.613,-5.80287 -74.4806,-3.62349 -44.1955,4.84801 -82.827,20.529 -111.8704,45.40947 -30.946,26.51046 -51.7273,74.57724 -54.8123,126.77992 -2.8861,48.83783 8.3033,94.64856 31.7092,129.82151 7.7057,11.5795 26.3917,30.30768 37.2041,37.28799 39.2825,25.36008 94.3682,35.91225 165.5,31.703 z m -39.5,-90.4302 c -0.825,-0.20033 -4.875,-0.91165 -9,-1.5807 -43.1608,-7.0004 -69.9362,-39.65922 -71.7075,-87.46377 -0.6118,-16.51158 0.992,-27.76818 6.0778,-42.65798 5.0889,-14.89914 10.6568,-23.86876 21.6297,-34.84441 13.5454,-13.54881 24.2618,-19.34255 42.9507,-23.22097 14.9023,-3.09261 37.2265,-1.68715 54.2993,3.41849 l 3.75,1.12145 v 90.28269 c 0,49.65548 -0.3558,90.50262 -0.7908,90.77142 -3.6348,2.24644 -41.3975,5.58506 -47.2092,4.17378 z M 1836,-177 v -58 h -55.5 -55.5 v 58 58 h 55.5 55.5 z"
       id="path60" />
  </g>
</svg>
