<?xml version="1.0" encoding="UTF-8" standalone="no"?>
<svg
   xmlns:dc="http://purl.org/dc/elements/1.1/"
   xmlns:cc="http://creativecommons.org/ns#"
   xmlns:rdf="http://www.w3.org/1999/02/22-rdf-syntax-ns#"
   xmlns:svg="http://www.w3.org/2000/svg"
   xmlns="http://www.w3.org/2000/svg"
   xmlns:sodipodi="http://sodipodi.sourceforge.net/DTD/sodipodi-0.dtd"
   xmlns:inkscape="http://www.inkscape.org/namespaces/inkscape"
   aria-hidden="true"
   focusable="false"
   data-prefix="fas"
   data-icon="basketball-ball"
   class="svg-inline--fa fa-basketball-ball fa-w-16"
   role="img"
   viewBox="0 0 1126.8693 400"
   version="1.1"
   id="svg4"
   sodipodi:docname="dota_nab.svg"
   inkscape:version="1.0.2 (e86c870879, 2021-01-15, custom)"
   width="1126.8693"
   height="400">
  <metadata
     id="metadata10">
    <rdf:RDF>
      <cc:Work
         rdf:about="">
        <dc:format>image/svg+xml</dc:format>
        <dc:type
           rdf:resource="http://purl.org/dc/dcmitype/StillImage" />
        <dc:title></dc:title>
      </cc:Work>
    </rdf:RDF>
  </metadata>
  <defs
     id="defs8">
    <clipPath
       clipPathUnits="userSpaceOnUse"
       id="clipPath990">
      <rect
         style="opacity:0.267742;fill:#7f848e;stroke-width:1.993"
         id="rect992"
         width="445.28293"
         height="402.92194"
         x="33.980511"
         y="-0.25035489" />
    </clipPath>
  </defs>
  <sodipodi:namedview
     pagecolor="#ffffff"
     bordercolor="#666666"
     borderopacity="1"
     objecttolerance="10"
     gridtolerance="10"
     guidetolerance="10"
     inkscape:pageopacity="0"
     inkscape:pageshadow="2"
     inkscape:window-width="1920"
     inkscape:window-height="1017"
     id="namedview6"
     showgrid="false"
     showborder="false"
     inkscape:zoom="1.0150849"
     inkscape:cx="542.15164"
     inkscape:cy="233.88953"
     inkscape:window-x="1912"
     inkscape:window-y="-8"
     inkscape:window-maximized="1"
     inkscape:current-layer="layer3"
     fit-margin-top="0"
     fit-margin-left="0"
     fit-margin-right="0"
     fit-margin-bottom="0" />
  <path
     fill="currentColor"
     d="M 173.07275,1.85484 C 137.36579,6.935486 102.80016,21.290324 73.45198,45.241941 l 63.09859,62.419349 C 159.21388,78.790321 171.84991,42.177421 173.07275,1.85484 Z M 202.17636,172.58065 330.90076,45.241941 C 296.3351,17.016131 254.59547,2.096776 212.28518,2.0167612e-6 211.30691,51.532261 194.7578,98.629031 164.43134,135.24194 Z M 45.73424,72.661291 C 21.522,101.69355 7.01096,135.8871 1.87502,171.20968 42.63638,170 79.72922,157.5 108.83284,135.08065 Z M 267.63911,237.33871 c 36.92979,-29.91935 84.53907,-46.29032 136.71361,-47.3387 -2.11959,-41.85484 -17.20129,-83.14517 -45.73423,-117.338719 L 229.89409,200 Z M 202.17636,227.41936 73.45198,354.75807 c 34.56563,28.14516 76.30527,43.14516 118.61557,45.24193 1.05979,-51.6129 17.6089,-98.70967 47.85384,-135.24194 z m 156.44213,99.91934 c 24.21223,-29.03225 38.72328,-63.22579 43.85921,-98.54837 -40.84288,1.29031 -77.8542,13.79032 -106.95782,36.12903 z M 136.71361,162.66129 C 99.70229,192.66129 52.09302,209.11291 0,210 2.11959,251.85484 17.20129,293.14516 45.73424,327.3387 L 174.45863,200 Z m 94.56636,235.48387 c 35.70695,-5.08064 70.27259,-19.43548 99.62079,-43.38709 l -63.09861,-62.41936 c -22.58178,28.79032 -35.21781,65.48387 -36.52218,105.80645 z"
     id="path2"
     style="fill:#ee6730;fill-opacity:1;stroke-width:0.810828" />
  <g
     inkscape:groupmode="layer"
     id="layer1"
     inkscape:label="basketball"
     transform="translate(297.74115,-69.450909)" />
  <g
     inkscape:groupmode="layer"
     id="layer2"
     inkscape:label="dota"
     transform="translate(297.74115,-69.450909)">
    <g
       id="g986"
       transform="matrix(0.99336501,0,0,0.99336501,353.04454,69.451049)"
       clip-path="url(#clipPath990)">
      <g
         id="g908">
	<path
   style="fill:#585a60"
   d="m 72.24,440.195 c -41.301,-0.417 -40.428,-0.968 -40.575,1.01 -0.206,2.757 5.012,0.667 6.26,5.124 l 0.006,0.044 c 0.126,3.962 -0.185,54.253 -0.205,57.379 -0.044,0.317 -0.397,2.246 -2.498,3.394 -0.608,0.333 -0.914,1.035 -0.742,1.706 0.171,0.671 0.776,1.141 1.469,1.141 h 0.317 c 6.366,0 14.981,0.185 19.866,1.066 3.452,0.623 6.829,0.939 10.038,0.939 0.002,0 0.001,0 0.002,0 24.952,0 38.107,-19.074 38.202,-37.914 0.082,-16.164 -9.941,-33.664 -32.14,-33.889 z m -21.723,5.762 c 43.988,-2.824 44.714,30.436 38.093,46.714 -3.465,8.519 -15.605,13.61 -25.343,13.61 -6.024,-0.001 -10.422,-1.906 -12.403,-5.369 z"
   id="path898" />

	<path
   style="fill:#585a60"
   d="m 130.628,475.511 c 0,23.732 19.423,36.149 38.608,36.149 18.605,0 38.378,-13.268 38.378,-37.856 0,-46.837 -76.986,-48.035 -76.986,1.707 z m 13.785,-0.148 c 0,-17.401 5.013,-31.399 22.575,-31.399 13.776,0 26.322,14.163 26.322,29.747 0.297,14.008 -2.814,31.026 -19.309,32.616 -17.065,-0.025 -27.02,-10.463 -29.583,-30.935 z"
   id="path900" />

	<path
   style="fill:#585a60"
   d="m 290.967,439.27 c -1.52,0.484 -3.363,0.809 -4.585,0.809 -1.259,0 -46.656,-0.065 -49.383,-0.069 -1.881,-0.985 -4.808,-2.185 -5.263,-0.114 l -1.882,8.561 c -0.157,0.714 0.217,1.438 0.89,1.723 0.672,0.283 1.453,0.048 1.856,-0.562 0.818,-1.239 2.05,-2.177 3.762,-2.865 4.394,-0.176 16.19,-0.196 18.783,-0.199 l -0.27,57.624 c -0.004,0.085 -0.12,2.08 -1.978,3.211 -1.304,0.794 -0.74,2.812 0.788,2.812 0.011,0 16.161,-0.073 16.173,-0.073 1.591,-0.007 2.095,-2.168 0.666,-2.875 -1.325,-0.657 -2.028,-1.648 -2.141,-2.936 -0.063,-2.68 -0.463,-48.35 -0.545,-57.751 l 16.529,0.392 c 0.148,0.007 3.636,0.205 4.872,3.681 0.243,0.685 0.942,1.1 1.66,0.99 1.593,-0.245 1.298,-1.387 1.515,-8.536 0.345,-0.782 0.628,-1.866 0.51,-2.613 -0.144,-0.919 -1.07,-1.488 -1.957,-1.21 z"
   id="path902" />

	<path
   style="fill:#585a60"
   d="m 383.142,488.86 c -4.065,-0.064 -12.542,-0.072 -14.344,-0.073 -0.058,-0.144 -20.315,-50.251 -20.315,-50.251 -0.549,-1.297 -2.312,-1.181 -2.801,0.02 l -26.476,65.116 c -0.011,0.024 -1.188,2.376 -4.057,3.751 -1.452,0.696 -0.948,2.881 0.653,2.884 0.082,0 12.003,0.019 12.003,0.019 1.706,0 2.096,-2.388 0.502,-2.948 -0.841,-0.422 -1.227,-1.015 -0.989,-1.925 0.85,-2.922 3.116,-9.264 3.665,-10.791 l 26.418,0.069 5.192,12.304 c 0.021,0.051 0.076,0.281 -0.095,0.537 -0.883,0.963 -0.21,2.522 1.096,2.541 0.107,0.002 15.069,0.213 15.069,0.213 0.893,0 1.536,-0.707 1.536,-1.516 0,-0.665 -0.429,-1.231 -1.026,-1.435 -1.986,-0.958 -2.819,-1.868 -7.923,-12.691 4.509,0.096 5.36,-1.936 12.063,-2.804 0.788,-0.102 1.364,-0.796 1.319,-1.589 -0.045,-0.793 -0.695,-1.418 -1.49,-1.431 z m -38.569,-29.638 10.637,29.471 -22.17,0.256 z"
   id="path904" />

	<path
   style="fill:#585a60"
   d="m 477.44,494.363 c -1.458,3.19 -3.257,6.321 -7.756,6.503 -2.344,0.092 -14.825,0.586 -22.665,0.528 47.013,-35.857 34.494,-62.853 6.484,-62.853 -6.141,0 -12.312,1.479 -16.932,4.058 -0.446,0.249 -0.736,0.705 -0.773,1.213 -0.118,1.624 0.195,4.905 0.932,9.752 0.104,0.686 0.661,1.214 1.352,1.281 0.685,0.062 1.339,-0.345 1.574,-0.997 2.702,-7.534 8.132,-10.218 12.313,-10.218 5.982,0 12.236,5.134 12.614,14.946 0.842,21.836 -25.758,42.444 -31.721,48.12 -1.011,0.872 -1.804,1.791 -0.966,2.849 0,1.905 2.411,2.148 2.949,0.593 5.117,-0.03 32.89,-0.19 38.031,-0.134 3.726,0.27 5.569,-1.896 5.651,-4.318 l 1.788,-10.437 c 0.297,-1.743 -2.143,-2.488 -2.875,-0.886 z"
   id="path906" />

</g>
      <path
         style="fill:#ea473b"
         d="M 453.687,91.905 C 452.13,18.25 452.033,34.171 453.55,11.215 453.64,9.854 452.612,8.678 451.252,8.585 341.575,1.083 337.419,0.218 328.92,0.218 179.299,0.206 257.85,-2.239 58.138,9.542 c -1.357,0.081 -2.394,1.241 -2.323,2.597 12.871,246.942 12.401,206.658 5.826,371.238 -0.047,1.182 0.75,2.231 1.902,2.503 14.947,3.534 12.298,2.143 47.165,2.168 0.057,0.017 65.341,-7.112 65.4,-7.118 0.308,0.051 90.277,14.817 90.59,14.817 0.069,0 0.137,-0.003 0.206,-0.009 105.441,-8.836 75.218,-6.701 143.243,-10.471 l 39.943,8.079 c 1.554,0.312 2.979,-0.889 2.962,-2.45 -0.865,-80.418 0.635,-298.991 0.635,-298.991 z M 291.548,86.043 c 0.297,-0.072 0.722,-0.176 1.252,-0.317 l 28.43,-6.407 c 14.563,-3.649 16.715,-4.538 29.177,-10.397 h 0.001 c 5.754,1.996 21.53,10.726 25.529,15.738 2.643,3.318 2.469,4.056 1.638,7.609 -0.16,0.682 -0.343,1.467 -0.535,2.394 -0.013,0.061 -0.023,0.124 -0.032,0.186 l -6.252,48.924 c -6.186,0.228 -6.702,-0.246 -8.413,-1.821 -0.706,-0.652 -1.585,-1.462 -3.135,-2.501 -9.407,-6.314 -40.193,-29.093 -49.914,-36.934 l -19.11,-15.354 0.154,-0.149 c 0.207,-0.206 0.391,-0.483 0.513,-0.748 0.096,-0.075 0.474,-0.168 0.697,-0.223 z m 44.304,246.33 C 335.293,331.814 96.948,79.139 96.773,78.79 l 20.823,-15.974 290.99,192.681 c -2.405,6.891 -3.365,14.799 -4.811,21.366 -5.112,23.193 -11.686,33.341 -21.966,55.377 -14.714,0.585 -44.944,0.472 -45.957,0.133 z M 119.036,264.012 c 2.679,-6.439 6.362,-16.797 9.458,-22.044 15.22,9.511 74.676,69.25 79.847,77.316 -2.864,1.063 -15.166,2.891 -35.605,11.056 -12.95,5.166 -25.178,10.067 -36.989,6.059 -1.178,-0.397 -4.318,-3.062 -8.974,-7.081 -8.504,-7.341 -16.205,-12.63 -20.683,-15.273 -7.638,-4.509 -6.448,-3.558 12.946,-50.033 z"
         id="path910" />
      <g
         id="g920">
	<path
   style="fill:#d82b27"
   d="M 86.228,264.537 C 84.362,168.283 86.446,220.715 75.386,8.525 L 58.138,9.542 c -1.357,0.081 -2.394,1.241 -2.323,2.597 l 9.183,176.187 c 1.824,94.113 2.323,52.87 -3.357,195.051 -0.047,1.182 0.75,2.231 1.902,2.503 8.435,1.995 11.941,2.442 17.875,2.442 -0.186,-0.635 -0.391,6.382 4.81,-123.785 z"
   id="path912" />

	<path
   style="fill:#d82b27"
   d="m 220.72,324.723 c 0,0 10.086,-3.472 1.795,-12.572 -33.842,-37.745 -54.458,-51.419 -74.053,-72.917 -8.189,-8.865 -19.967,2.733 -19.967,2.733 76.582,68.074 61.24,58.22 74.739,71.254 1.792,1.73 3.206,3.096 5.108,6.062 -0.354,0.131 -1.919,0.526 -4.085,1.073 -31.862,8.04 -36.642,13.498 -50.869,16.547 13.277,10.825 36.689,-2.382 53.38,-8.129 3.991,-1.373 9.278,-2.83 13.952,-4.051 z"
   id="path914" />

	<path
   style="fill:#d82b27"
   d="M 423.074,235.456 C 423.073,235.455 144.879,58.043 144.879,58.043 135.559,52.1 125.508,54.96 117.597,62.816 l 290.99,192.681 c -2.405,6.891 -3.365,14.799 -4.811,21.366 -5.112,23.193 -11.686,33.341 -21.966,55.377 0,0 26.354,5.066 34.389,-12.769 18.853,-40.124 14.5,-47.692 18.992,-60.361 -0.533,-7.146 0.46,-15.632 -12.117,-23.654 z"
   id="path916" />

	<path
   style="fill:#d82b27"
   d="m 377.041,94.663 c -0.013,0.061 -0.023,0.124 -0.032,0.186 l -6.252,48.924 c 0,0 24.736,15.278 27.844,-9.842 10e-4,-0.008 0.002,-0.016 0.003,-0.024 l 5.117,-41.359 c 0.009,-0.063 0.019,-0.127 0.033,-0.19 0.195,-0.948 0.383,-1.75 0.546,-2.447 0.849,-3.632 1.027,-4.387 -1.675,-7.779 -2.84,-3.56 -15.566,-12.956 -25.047,-19.049 -8.949,-6 -19.577,1.215 -19.577,1.215 -2.653,2.033 -5.024,3.809 -7.593,4.624 6.499,3.515 22.966,12.526 25.529,15.738 2.643,3.318 2.469,4.056 1.638,7.609 -0.16,0.683 -0.343,1.468 -0.534,2.394 z"
   id="path918" />

</g>
      <g
         id="g922">
</g>
      <g
         id="g924">
</g>
      <g
         id="g926">
</g>
      <g
         id="g928">
</g>
      <g
         id="g930">
</g>
      <g
         id="g932">
</g>
      <g
         id="g934">
</g>
      <g
         id="g936">
</g>
      <g
         id="g938">
</g>
      <g
         id="g940">
</g>
      <g
         id="g942">
</g>
      <g
         id="g944">
</g>
      <g
         id="g946">
</g>
      <g
         id="g948">
</g>
      <g
         id="g950">
</g>
    </g>
  </g>
  <g
     inkscape:groupmode="layer"
     id="layer3"
     inkscape:label="vs"
     transform="translate(297.74115,-69.450909)">
    <path
       d="m 246.71651,146.97304 a 121.92937,121.92937 0 0 1 71.13461,22.77536 l 0.2633,-0.2633 28.89706,-28.919 a 20.208196,20.208196 0 0 1 28.52406,28.52406 l -28.85318,28.96288 -0.2633,0.2633 A 122.49985,122.49985 0 0 1 175.53802,369.15349 l -0.61436,0.65825 -28.52407,28.52405 a 20.208196,20.208196 0 0 1 -28.52405,-28.52405 l 28.52405,-28.52406 0.63631,-0.61436 a 122.49985,122.49985 0 0 1 99.68061,-193.70028 z m 8.77663,80.41589 -22.40235,82.65394 -30.34521,1.71144 -27.53668,-79.86735 29.00677,-2.67687 11.76069,46.47227 11.36573,-50.13652 28.12911,1.84309 z m 62.66516,54.41513 a 33.109846,33.109846 0 0 1 -2.91823,14.48144 27.712217,27.712217 0 0 1 -7.94285,10.00536 33.263437,33.263437 0 0 1 -11.80457,5.83646 54.985603,54.985603 0 0 1 -14.52533,1.84309 30.718214,30.718214 0 0 1 -6.58248,-0.78989 q -3.55453,-0.7899 -7.24072,-1.97474 c -2.43551,-0.7899 -4.8052,-1.64562 -7.04324,-2.56717 -2.23805,-0.92155 -4.27861,-1.79921 -6.03394,-2.61105 l 2.65493,-23.9602 a 43.992871,43.992871 0 0 0 11.54127,4.73938 50.158455,50.158455 0 0 0 12.44088,1.60173 c 0.7899,0 1.71144,0 2.80852,0 a 13.60378,13.60378 0 0 0 3.15959,-0.54854 7.2626634,7.2626634 0 0 0 2.54522,-1.36038 3.4228867,3.4228867 0 0 0 1.00932,-2.63299 2.8962887,2.8962887 0 0 0 -0.72408,-2.01862 5.924227,5.924227 0 0 0 -1.88697,-1.33844 12.989416,12.989416 0 0 0 -2.61105,-0.78989 q -1.49203,-0.2633 -2.89629,-0.39495 -1.40426,-0.13165 -2.63299,-0.13165 h -1.9528 a 26.132423,26.132423 0 0 1 -9.56653,-1.64562 20.932269,20.932269 0 0 1 -7.30654,-4.67356 20.471495,20.471495 0 0 1 -4.80521,-7.35043 25.145052,25.145052 0 0 1 -1.71144,-9.54458 27.953575,27.953575 0 0 1 2.89628,-12.94554 30.279382,30.279382 0 0 1 7.76732,-9.74206 35.10653,35.10653 0 0 1 11.16827,-6.1217 40.196977,40.196977 0 0 1 13.0333,-2.19416 c 1.99668,0 4.03725,0 6.16558,0.21942 a 61.260895,61.260895 0 0 1 6.31918,0.74601 54.853953,54.853953 0 0 1 6.16558,1.4262 37.300688,37.300688 0 0 1 5.68287,2.19416 l -2.32581,24.72816 a 70.21306,70.21306 0 0 0 -8.77663,-2.34775 43.224915,43.224915 0 0 0 -8.84246,-1.00931 h -2.04056 c -0.83378,0 -1.71145,0 -2.63299,0.17553 -0.92155,0.17554 -1.8431,0.2633 -2.78658,0.46078 a 12.396993,12.396993 0 0 0 -2.50134,0.81184 5.4415122,5.4415122 0 0 0 -1.77727,1.38232 2.9840551,2.9840551 0 0 0 -0.61437,2.04056 2.6110482,2.6110482 0 0 0 1.00932,2.06251 5.9022854,5.9022854 0 0 0 2.45745,1.07514 15.205516,15.205516 0 0 0 3.29124,0.32912 c 1.20679,0 2.41358,0 3.57648,0 l 3.29124,-0.17553 a 20.339846,20.339846 0 0 1 2.52328,0 25.145052,25.145052 0 0 1 8.77663,2.08445 20.932269,20.932269 0 0 1 6.58247,4.6955 20.054605,20.054605 0 0 1 4.23473,6.99936 26.593197,26.593197 0 0 1 1.38232,8.93023 z m -0.74601,-83.11471 a 100.11944,100.11944 0 1 0 29.27007,70.7616 99.812254,99.812254 0 0 0 -29.20425,-70.7616 z"
       id="path1010"
       style="opacity:0.73871;stroke-width:2.19416" />
  </g>
</svg>
