<?xml version="1.0" encoding="UTF-8" standalone="no"?>
<svg
   xmlns:dc="http://purl.org/dc/elements/1.1/"
   xmlns:cc="http://creativecommons.org/ns#"
   xmlns:rdf="http://www.w3.org/1999/02/22-rdf-syntax-ns#"
   xmlns:svg="http://www.w3.org/2000/svg"
   xmlns="http://www.w3.org/2000/svg"
   xmlns:sodipodi="http://sodipodi.sourceforge.net/DTD/sodipodi-0.dtd"
   xmlns:inkscape="http://www.inkscape.org/namespaces/inkscape"
   aria-hidden="true"
   focusable="false"
   data-prefix="fas"
   data-icon="folder-open"
   class="svg-inline--fa fa-folder-open fa-w-18"
   role="img"
   viewBox="0 0 576 512"
   version="1.1"
   id="svg4"
   sodipodi:docname="folder-open-solid.svg"
   inkscape:version="1.0.2 (e86c870879, 2021-01-15, custom)">
  <metadata
     id="metadata10">
    <rdf:RDF>
      <cc:Work
         rdf:about="">
        <dc:format>image/svg+xml</dc:format>
        <dc:type
           rdf:resource="http://purl.org/dc/dcmitype/StillImage" />
      </cc:Work>
    </rdf:RDF>
  </metadata>
  <defs
     id="defs8" />
  <sodipodi:namedview
     pagecolor="#ffffff"
     bordercolor="#666666"
     borderopacity="1"
     objecttolerance="10"
     gridtolerance="10"
     guidetolerance="10"
     inkscape:pageopacity="0"
     inkscape:pageshadow="2"
     inkscape:window-width="1920"
     inkscape:window-height="1017"
     id="namedview6"
     showgrid="false"
     inkscape:zoom="1.4355469"
     inkscape:cx="170.03401"
     inkscape:cy="256"
     inkscape:window-x="1912"
     inkscape:window-y="-8"
     inkscape:window-maximized="1"
     inkscape:current-layer="svg4"
     inkscape:document-rotation="0" />
  <path
     style="fill:#d19a66;fill-opacity:1;stroke:#282c34;stroke-width:2;stroke-miterlimit:4;stroke-dasharray:none;stroke-opacity:1"
     d="M 2.5098658,287.512 C 1.6353958,150.33214 2.2355358,81.016585 4.3556658,74.32365 8.2449058,62.045879 20.998936,49.401088 34.444796,44.492244 c 4.1727,-1.52338 4.1767,-1.523473 88.809624,-2.081293 l 84.63674,-0.557844 32.10743,32.076044 32.10743,32.076049 81.08985,0.32677 c 44.59941,0.17973 83.75349,0.62056 87.00905,0.97962 4.5734,0.5044 7.18667,1.26468 11.49388,3.34388 11.22568,5.41893 18.0858,12.28717 23.41208,23.43977 3.50495,7.33896 3.93469,11.39122 4.41394,41.62177 l 0.38376,24.2068 H 310.28325 140.65792 l -7.1344,1.69247 c -20.21246,4.79493 -34.329354,12.40188 -48.100254,25.91903 -11.84726,11.62895 -8.94094,7.08442 -55.17953,86.28238 -14.09213,24.13715 -25.9930702,44.43019 -26.4465302,45.09567 -0.63872,0.93734 -0.92876,-15.14977 -1.28734,-71.40136 z"
     id="path18" />
  <path
     style="fill:#d19a66;fill-opacity:1;stroke:#282c34;stroke-width:2;stroke-miterlimit:4;stroke-dasharray:none;stroke-opacity:1"
     d="m 38.143626,420.80988 c -4.48821,-1.55002 -9.19155,-5.92404 -11.62844,-10.81423 -2.50786,-5.03264 -2.45899,-12.91333 0.11169,-18.00792 3.95059,-7.82931 48.54463,-84.52411 69.12066,-118.87676 8.714284,-14.5489 13.394924,-20.32014 20.718864,-25.54639 5.47619,-3.90773 15.80565,-8.77606 22.61341,-10.65783 l 5.26892,-1.4564 h 207.09998 207.09998 l 4.6888,3.1171 c 7.54802,5.01792 10.47544,10.31386 10.47544,18.95098 v 5.39446 l -6.7444,11.86873 c -22.85985,40.22851 -67.90023,116.53014 -73.29074,124.15974 -6.45751,9.13981 -17.39434,16.56247 -31.7168,21.52572 l -4.82405,1.6717 -207.63854,-0.0227 c -199.876614,-0.0219 -207.777454,-0.0708 -211.354774,-1.3062 z"
     id="path843" />
</svg>
