<?xml version="1.0" encoding="UTF-8" standalone="no"?>
<svg
   xmlns:dc="http://purl.org/dc/elements/1.1/"
   xmlns:cc="http://creativecommons.org/ns#"
   xmlns:rdf="http://www.w3.org/1999/02/22-rdf-syntax-ns#"
   xmlns:svg="http://www.w3.org/2000/svg"
   xmlns="http://www.w3.org/2000/svg"
   xmlns:sodipodi="http://sodipodi.sourceforge.net/DTD/sodipodi-0.dtd"
   xmlns:inkscape="http://www.inkscape.org/namespaces/inkscape"
   version="1.1"
   id="svg830"
   width="796.30768"
   height="680.61536"
   viewBox="0 0 796.30768 680.61536"
   sodipodi:docname="logo.svg"
   inkscape:version="1.0.2 (e86c870879, 2021-01-15, custom)">
  <metadata
     id="metadata836">
    <rdf:RDF>
      <cc:Work
         rdf:about="">
        <dc:format>image/svg+xml</dc:format>
        <dc:type
           rdf:resource="http://purl.org/dc/dcmitype/StillImage" />
        <dc:title></dc:title>
      </cc:Work>
    </rdf:RDF>
  </metadata>
  <defs
     id="defs834" />
  <sodipodi:namedview
     pagecolor="#ffffff"
     bordercolor="#666666"
     borderopacity="1"
     objecttolerance="10"
     gridtolerance="10"
     guidetolerance="10"
     inkscape:pageopacity="0"
     inkscape:pageshadow="2"
     inkscape:window-width="1920"
     inkscape:window-height="1017"
     id="namedview832"
     showgrid="false"
     inkscape:zoom="1.0799051"
     inkscape:cx="381.48571"
     inkscape:cy="340.30768"
     inkscape:window-x="-8"
     inkscape:window-y="-8"
     inkscape:window-maximized="1"
     inkscape:current-layer="g838" />
  <g
     inkscape:groupmode="layer"
     inkscape:label="Image"
     id="g838">
    <path
       style="fill:#56b6c2;fill-opacity:1;stroke-width:1.23077"
       d="m 77.948518,680.17538 -34.53108,-0.70631 -9.17218,-4.53597 C 18.688478,667.23975 7.4632082,653.42946 3.4186082,637.00753 c -1.37872,-5.59787 -1.66534,-56.92496 -1.65641,-296.61537 0.0103,-276.320263 0.11494,-290.190763 2.24205,-297.230773 1.22719,-4.06154 3.65457,-10.01466 5.39418,-13.22916 C 13.959108,21.504897 25.378738,11.150537 35.202548,6.5352174 l 8.35397,-3.92478 35.07693,-0.99607 C 97.925748,1.0665274 256.8796,0.78284737 431.86421,0.98395737 l 318.15385,0.36565003 7.78918,2.79775 c 18.12433,6.5099996 29.59913,17.9793496 36.1651,36.1479296 l 2.81495,7.78918 V 340.39216 c 0,315.03083 0.39195,295.98156 -6.36903,309.53808 -6.62275,13.27938 -17.27553,22.43234 -32.46662,27.89563 l -7.93358,2.8532 -318.76923,0.10129 C 255.92576,680.83606 96.940608,680.56385 77.948518,680.17538 Z M 740.78729,384.28734 V 143.87486 l -111.69231,-0.81753 c -61.43077,-0.44964 -215.12307,-0.81786 -341.53846,-0.81826 L 57.710368,142.23832 V 383.46908 624.69984 H 399.24883 740.78729 Z m -472,121.01704 c -3.38461,-0.61757 -8.36923,-1.8923 -11.07692,-2.83276 l -4.92308,-1.7099 -0.33379,-24.21004 -0.3338,-24.21004 6.96523,3.93094 c 5.71788,3.22697 8.66915,4.02956 16.47989,4.48172 5.72858,0.33162 11.33509,-0.05 14.08951,-0.95904 6.00994,-1.98345 12.49813,-7.79185 15.70088,-14.05581 6.3968,-12.51093 6.34438,-11.76375 6.80789,-97.0396 l 0.43315,-79.69231 h 23.32629 23.32629 l -10e-4,79.69231 c -0.001,65.10482 -0.3373,81.59942 -1.8352,90.11096 -7.51287,42.69072 -31.4565,65.65724 -69.99359,67.13724 -6.86247,0.26356 -15.24645,-0.0261 -18.63106,-0.64367 z m 323.07692,-12.29685 v -13.53846 h 64.61539 64.61538 V 493.00753 506.546 H 656.4796 591.86421 Z M 72.479598,473.56831 v -31.74692 l 64.222542,-36.30531 c 35.3224,-19.96793 64.40541,-36.85392 64.62891,-37.52443 0.22351,-0.67051 -28.53818,-18.73146 -63.91484,-40.13543 l -64.321222,-38.91633 -0.32835,-32.22947 c -0.18058,-17.7262 0.11785,-32.04174 0.6632,-31.81233 0.54535,0.22943 41.274662,27.46206 90.509572,60.51695 l 89.51803,60.09979 -0.33507,22.1917 -0.33508,22.1917 -89.54729,57.70851 c -49.25102,31.73966 -89.820252,57.70849 -90.153852,57.70849 -0.3336,0 -0.60655,-14.28612 -0.60655,-31.74692 z M 407.24883,385.96455 V 268.79484 l 50.15385,0.54272 c 44.57791,0.48238 51.38776,0.81909 61.2526,3.02865 52.30085,11.7145 77.31782,47.51643 77.20429,110.48748 -0.0689,38.21811 -9.81268,65.08055 -31.68767,87.35919 -15.68334,15.97273 -30.95337,24.40995 -52.9206,29.24045 -9.59005,2.10881 -17.32498,2.51996 -57.54093,3.05862 l -46.46154,0.62232 z m 88.8625,72.45627 c 22.30438,-4.63709 39.58945,-22.13021 46.69737,-47.25944 3.68928,-13.04299 3.99664,-39.99779 0.59646,-52.30769 -3.19311,-11.56016 -8.97626,-21.77513 -16.81618,-29.70296 -12.67027,-12.81233 -24.65099,-16.90257 -52.57092,-17.9478 l -18.76923,-0.70265 v 74.63824 74.63825 h 17.17019 c 9.44361,0 20.10514,-0.61018 23.69231,-1.35595 z M 108.64718,98.649747 c 8.10808,-2.44017 13.50931,-6.97099 17.24365,-14.46483 8.20707,-16.46947 -0.56079,-35.45653 -18.61856,-40.31898 -6.88286,-1.85336 -13.830872,-0.54259 -21.575542,4.07032 -20.08067,11.96051 -16.34694,42.66618 6.16499,50.69989 6.00104,2.141563 9.704822,2.144563 16.785462,0.0136 z m 90.38505,-1.85864 c 9.58885,-4.93264 15.16214,-14.19091 15.16101,-25.18521 -0.001,-10.75263 -4.26703,-18.41051 -13.52723,-24.28316 -4.76993,-3.025 -6.83964,-3.54597 -14.08752,-3.54597 -10.26467,0 -15.01629,2.02343 -21.64891,9.21896 -13.74966,14.91662 -7.54955,38.46249 12.05439,45.77841 5.57595,2.080873 15.96456,1.14652 22.04826,-1.98303 z"
       id="path1407" />
  </g>
</svg>
