<?xml version="1.0" encoding="UTF-8" standalone="no"?>
<svg
   xmlns:dc="http://purl.org/dc/elements/1.1/"
   xmlns:cc="http://creativecommons.org/ns#"
   xmlns:rdf="http://www.w3.org/1999/02/22-rdf-syntax-ns#"
   xmlns:svg="http://www.w3.org/2000/svg"
   xmlns="http://www.w3.org/2000/svg"
   xmlns:sodipodi="http://sodipodi.sourceforge.net/DTD/sodipodi-0.dtd"
   xmlns:inkscape="http://www.inkscape.org/namespaces/inkscape"
   aria-hidden="true"
   focusable="false"
   data-prefix="fab"
   data-icon="python"
   class="svg-inline--fa fa-python fa-w-14"
   role="img"
   viewBox="0 0 448 512"
   version="1.1"
   id="svg4"
   sodipodi:docname="python-brands.svg"
   inkscape:version="1.0.2 (e86c870879, 2021-01-15, custom)">
  <metadata
     id="metadata10">
    <rdf:RDF>
      <cc:Work
         rdf:about="">
        <dc:format>image/svg+xml</dc:format>
        <dc:type
           rdf:resource="http://purl.org/dc/dcmitype/StillImage" />
      </cc:Work>
    </rdf:RDF>
  </metadata>
  <defs
     id="defs8">
    <clipPath
       clipPathUnits="userSpaceOnUse"
       id="clipPath852">
      <g
         inkscape:label="Clip"
         id="use854"
         style="stroke:none">
        <g
           id="g875"
           style="stroke:none">
          <path
             fill="currentColor"
             d="m 443.97959,204.67959 c -7.7,-30.9 -22.3,-54.2 -53.4,-54.2 h -40.1 v 47.4 c 0,36.8 -31.2,67.8 -66.8,67.8 h -106.8 c -29.2,0 -53.4,25 -53.4,54.3 v 101.8 c 0,29 25.2,46 53.4,54.3 33.8,9.9 66.3,11.7 106.8,0 26.9,-7.8 53.4,-23.5 53.4,-54.3 v -40.7 h -106.7 v -13.6 h 160.2 c 31.1,0 42.6,-21.7 53.4,-54.2 11.2,-33.5 10.7,-65.7 0,-108.6 z m -153.6,203.5 c 11.1,0 20.1,9.1 20.1,20.3 0,11.3 -9,20.4 -20.1,20.4 -11,0 -20.1,-9.2 -20.1,-20.4 0.1,-11.3 9.1,-20.3 20.1,-20.3 z m -118.4,-155.9 h 106.8 c 29.7,0 53.4,-24.5 53.4,-54.3 V 96.079592 c 0,-29 -24.4,-50.7 -53.4,-55.6 -35.8,-5.9 -74.7,-5.6 -106.8,0.1 -45.2,8 -53.4,24.7 -53.4,55.6 v 40.699998 h 106.9 v 13.6 H 78.479592 c -31.1,0 -58.3,18.7 -66.8,54.2 -9.8000002,40.7 -10.2000002,66.1 0,108.6 7.6,31.6 25.7,54.2 56.8,54.2 h 36.699998 v -48.8 c 0,-35.3 30.5,-66.4 66.8,-66.4 z m -6.7,-142.6 c -11.1,0 -20.1,-9.1 -20.1,-20.299998 0.1,-11.3 9,-20.4 20.1,-20.4 11,0 20.1,9.2 20.1,20.4 0,11.199998 -9,20.299998 -20.1,20.299998 z"
             id="path873"
             style="stroke:none" />
        </g>
      </g>
    </clipPath>
  </defs>
  <sodipodi:namedview
     pagecolor="#ffffff"
     bordercolor="#666666"
     borderopacity="1"
     objecttolerance="10"
     gridtolerance="10"
     guidetolerance="10"
     inkscape:pageopacity="0"
     inkscape:pageshadow="2"
     inkscape:window-width="1920"
     inkscape:window-height="1017"
     id="namedview6"
     showgrid="false"
     inkscape:zoom="1.4355469"
     inkscape:cx="133.31658"
     inkscape:cy="227.2274"
     inkscape:window-x="1912"
     inkscape:window-y="-8"
     inkscape:window-maximized="1"
     inkscape:current-layer="svg4" />
  <g
     id="g881">
    <path
       style="fill:#4b8bbe;fill-opacity:1;stroke:none;stroke-width:1.3932;stroke-opacity:1"
       d="m 54.726535,349.24961 c -6.33079,-1.33197 -16.35964,-6.24423 -21.40463,-10.48427 -12.1113,-10.17887 -19.89709,-25.81561 -25.2552105,-50.7218 -7.69519004,-35.76952 -7.31343004,-63.25957 1.35431,-97.5238 3.1071595,-12.28286 5.8984105,-19.17301 10.7495805,-26.5352 7.68174,-11.65791 19.11833,-20.91274 31.36664,-25.38282 12.65329,-4.61787 7.80372,-4.37687 93.921275,-4.66754 l 78.1932,-0.26392 v -6.92764 -6.92765 h -53.33846 -53.33847 l 0.25678,-28.386397 c 0.2536,-28.03569 0.27851,-28.45664 2.01608,-34.07171 4.28598,-13.8504 12.70237,-21.793202 29.42643,-27.770613 28.57289,-10.212344 85.49008,-12.707771 127.23335,-5.578307 26.75284,4.5692 47.26471,21.88481 52.56681,44.37559 0.87791,3.72395 1.04148,13.42664 1.05017,62.291437 0.0117,65.91104 0.26382,62.74684 -6.0166,75.51823 -2.78544,5.66426 -4.21658,7.57545 -9.93343,13.2654 -7.54192,7.50645 -14.1034,11.42763 -23.54606,14.07127 -5.33643,1.49403 -6.44456,1.5252 -68.4664,1.92563 -69.96208,0.45168 -65.33293,0.13863 -77.45121,5.23762 -15.34308,6.45587 -29.6276,20.77868 -36.00759,36.10413 -4.89344,11.75456 -5.61721,18.17961 -5.64159,50.08167 l -0.018,23.5102 -21.420405,-0.0568 c -16.0088,-0.0424 -22.65231,-0.31598 -26.29659,-1.08272 z M 169.08448,92.303843 c 10.95644,-3.25372 16.92209,-15.37532 13.15249,-26.72454 -1.38815,-4.17932 -5.06504,-8.57513 -9.19928,-10.99796 -3.76794,-2.20816 -11.10724,-2.98486 -15.79711,-1.67178 -4.71772,1.32088 -9.52079,5.3653 -11.90261,10.02258 -8.36422,16.35493 6.33904,34.54116 23.74651,29.3717 z"
       id="path863" />
    <path
       style="fill:#ffd43b;fill-opacity:1;stroke:none;stroke-width:1.993;stroke-miterlimit:4;stroke-dasharray:none;stroke-opacity:1"
       d="m 207.88716,465.63162 c -29.5287,-3.58014 -55.51288,-13.56308 -70.41324,-27.05229 -4.32099,-3.91177 -9.53469,-11.52792 -11.9227,-17.41662 -1.59477,-3.93261 -1.76362,-5.49117 -2.27148,-20.96678 -0.69731,-21.24896 -0.68927,-72.67695 0.0145,-92.64762 0.50496,-14.32913 0.66578,-15.66396 2.47443,-20.53785 5.1767,-13.95001 14.8438,-24.67654 28.06497,-31.14066 6.07541,-2.9704 6.94522,-3.1953 14.62857,-3.78242 4.49299,-0.34332 34.34377,-0.90001 66.33506,-1.23707 63.78342,-0.67204 60.44616,-0.43516 71.61039,-5.08285 10.75493,-4.47728 23.39802,-14.69073 30.49241,-24.63262 4.01567,-5.62746 8.19018,-14.53995 10.42441,-22.25592 1.77436,-6.12778 1.82712,-6.91031 2.33549,-34.6456 0.28606,-15.60692 0.69651,-28.55261 0.91211,-28.76821 0.21559,-0.21559 11.00875,-0.0909 23.98478,0.27704 18.81703,0.53359 24.36835,0.90875 27.42409,1.85333 19.08818,5.90042 31.13119,22.06427 38.65316,51.87936 10.20194,40.43779 10.49708,71.98222 0.97163,103.84658 -9.36015,31.31142 -20.33713,47.47089 -36.96677,54.41963 l -3.70292,1.54728 -72.44626,0.46993 c -39.84544,0.25846 -78.95075,0.50614 -86.90068,0.55039 l -14.45442,0.0805 v 8.01089 8.01088 h 53.2712 53.27121 l -0.37833,24.9034 c -0.37645,24.77991 -0.38731,24.92586 -2.19022,29.4313 -4.99727,12.48812 -14.83245,22.55651 -29.07073,29.76004 -24.65289,12.47257 -63.95588,18.78687 -94.15066,15.12599 z m 89.87768,-34.02174 c 4.15237,-2.03157 7.20525,-5.09013 9.64664,-9.66461 2.13302,-3.99667 2.28418,-14.8585 0.25906,-18.61465 -2.56148,-4.75098 -5.37219,-7.58832 -9.61966,-9.71081 -7.70703,-3.85125 -17.5636,-2.68346 -23.81803,2.82191 -6.45132,5.67868 -8.63595,14.77437 -5.66842,23.60039 1.72848,5.14086 7.77208,11.28613 12.62239,12.83474 4.98253,1.59082 11.80219,1.06963 16.57802,-1.26697 z"
       id="path865" />
  </g>
</svg>
